
<svg version="1.0" xmlns="http://www.w3.org/2000/svg"
 width="408.000000pt" height="410.000000pt" viewBox="0 0 408.000000 410.000000"
 preserveAspectRatio="xMidYMid meet">

<g transform="translate(0.000000,410.000000) scale(0.100000,-0.100000)"
fill="#000000" stroke="none">
<path d="M740 3786 c-174 -49 -312 -185 -372 -366 -22 -64 -22 -80 -26 -725
-4 -704 1 -801 42 -922 52 -154 156 -312 261 -397 81 -67 198 -131 301 -166
177 -59 409 -53 578 16 127 52 196 102 371 275 l170 168 -140 141 -140 141
-143 -146 c-78 -80 -164 -159 -190 -176 -136 -86 -318 -90 -466 -11 -65 35
-153 123 -188 188 -58 108 -58 109 -58 824 l0 656 23 44 c43 85 -9 80 848 80
819 0 835 -1 1011 -56 159 -50 343 -156 467 -270 53 -48 60 -51 140 -63 84
-13 222 -56 296 -94 62 -31 154 -95 222 -155 l63 -54 -16 38 c-180 432 -586
815 -1017 959 -248 83 -188 79 -1142 81 -663 2 -860 0 -895 -10z"/>
<path d="M1051 2896 c-40 -8 -100 -24 -132 -36 l-59 -22 0 -240 0 -240 48 42
c157 139 385 154 557 35 28 -19 273 -262 545 -541 272 -278 522 -526 555 -551
72 -55 217 -127 300 -148 33 -9 101 -19 151 -22 l92 -6 60 77 c90 112 177 278
197 375 l7 34 -53 -31 c-86 -48 -158 -65 -264 -60 -83 3 -101 8 -169 42 -70
34 -96 57 -304 269 -548 561 -831 842 -889 883 -73 53 -165 96 -265 124 -96
28 -275 35 -377 16z"/>
<path d="M2963 2901 c-76 -13 -189 -49 -258 -83 -100 -50 -173 -109 -328 -265
l-147 -148 139 -139 139 -139 154 155 c129 132 163 161 218 186 196 91 387 55
542 -102 88 -90 129 -208 129 -371 -1 -366 -158 -732 -418 -975 -138 -129
-266 -208 -445 -274 -181 -67 -196 -68 -863 -73 -330 -2 -689 0 -797 4 l-197
8 -32 30 c-54 51 -59 76 -59 272 l0 178 -80 53 c-98 65 -191 155 -258 252
l-52 73 0 -397 c0 -331 3 -409 16 -460 46 -179 186 -322 374 -381 47 -15 109
-18 430 -22 206 -2 596 0 865 5 l490 10 121 30 c575 145 1013 555 1203 1127
71 213 85 302 85 530 0 189 -2 205 -27 288 -55 179 -163 345 -289 446 -81 65
-222 135 -321 161 -89 22 -257 33 -334 21z"/>
</g>
</svg>
